/* XPM */
static char *_4b5e4cbaa0b4fefd5f59809d7bb1968[] = {
/* columns rows colors chars-per-pixel */
"64 64 70 1 ",
"  c #020101",
". c #080403",
"X c #040708",
"o c #06090A",
"O c #0A0C0C",
"+ c #0E1212",
"@ c #141414",
"# c #1B1B1B",
"$ c #230705",
"% c #260906",
"& c #2A0B07",
"* c #270A08",
"= c #2C0D0A",
"- c #310F0B",
"; c #2F100D",
": c #35110D",
"> c #3A130E",
", c #341410",
"< c #3D1511",
"1 c #2D2F30",
"2 c #2F3232",
"3 c #333535",
"4 c #353738",
"5 c #363839",
"6 c #3B3C3C",
"7 c #431612",
"8 c #491713",
"9 c #451914",
"0 c #4B1A15",
"q c #451C18",
"w c #4C1D19",
"e c #511C16",
"r c #531E19",
"t c #591F19",
"y c #53211C",
"u c #5C211B",
"i c #64241D",
"p c #6A261F",
"a c #6D281F",
"s c #70281F",
"d c #6D2720",
"f c #6E2820",
"g c #722720",
"h c #732922",
"j c #7B2C24",
"k c #3E3F40",
"l c #3F4040",
"z c #434444",
"x c #494747",
"c c #474748",
"v c #474848",
"b c #4B4B4B",
"n c #504F4F",
"m c #514F50",
"M c #545353",
"N c #575858",
"B c #5D5C5C",
"V c #605F5F",
"C c #636262",
"Z c #812F26",
"A c #842F28",
"S c #843027",
"D c #883127",
"F c #863028",
"G c #8C3229",
"H c #93352B",
"J c #99372D",
"K c #9C382E",
"L c #A13A2F",
"P c #A43B31",
/* pixels */
"CMz33456llcvvvnbbbbbbbbbczzzzcMCCM6345566zcxvbnbbnnvvvvvvzzlzcMC",
"M@     ooXXooOooOOooooOXoooXo #nn#     ooXoXoooOooooooOoXXoXo @M",
"6 $7r09qq77<-;,-,-;;->,>>7<<7$ 66 %88980q7<<>,&=::;;=-;><<7<<% 6",
"3 <ugggjggfhgjjjjjhjfhddigpdh9 32 8jghfdauijjjipjjhaddtfjhhpi8 3",
"6 9aahhhdpuiSGHFjjAFjjhhddfpd9 56 8ffjppgpudSZZGHZhZgidfiuhjp7 5",
"6X0gfhfhhgpuDGDHGjAjSSjjdippd9o66OqaipupZFjjZSJHGHHjdjhgdeihg8Xl",
"zX<pgjgdhjijGFSFGJJFjhijgfiff<ozzX9gpddfjZSSGHHHGKLSZjjjjyupi<ol",
"cX:pfdfifjHHjpSJHJHGHSihhgddg>oczX,fdffjghSJJHHHHGHHHFDjfiffd<oc",
"zX;ddigjjjGJGSJKPJZFHGGhipjha>oczo9hpuiphjjFGKHGHGjjGDZZjhfdf<ov",
"co;ipifjZjjGJKGSHHDFDZjfppauh7XczX9jpddfjZZpjHDGKHSjGFjpfipii<oz",
"kX9ddfgjjhjGGJHGDHHDDjgffgiys7Ol6o7jpdgghjjgjDHHGGJGFFjipddpp<oz",
"6X<ipjjgpdjSSFGGGHGjhAjhhgfgp,o65o0sfufpgffZjSjspijFjjhfgjjdpqo6",
"3X0gggpiipjpijjdjZppijhifhupp< 53oeahdiijfppijjppfffiigpshjjj7 6",
"6 ;ee0w098q7<90q77:<7q0<<9<98% 63 =7e000wwe9>987,<<979q008780% 6",
"nO  . ++OoooooXX.ooooooOX     @MbO    ++OOOoooXXooooOOo+.     +n",
"Cv32131226666lllzllz6k66436335nBBb32221135666z6z6lzl6665353334bC",
"MvbvbbvzczllzcMVBM633336kzzvvccvvbbcvvvcxclzzvMBCMl332646zccvvvM",
"@OOOoOoooXoOoX#nM#    .oOooOOOoOOoOOooooooOooo#MM#   . OOooOOOo+",
"=,=-::,7799<<% 6l %8988qq7<,,>>-,;-=,:,<<<787& 56 %80eeq7<::::,=",
"ghigjfhghhgip0 33 9spppifgfiajZSjjaujjpfjiphg7 33 9ghteigsgsjhga",
"FjGjjgdpiipgf7 65 9asjhpjdijZZjFZFhdhhidpisgs7 65 <pi<0yfjjjSGDF",
"FjGFDjpdfi0ig9o66o9iuphjjhdjGFZDGGZGGipjpphgs9o66o9idfiujjjSSDFF",
"GHHFGSffji0ugqOllo7iyigjjjDGDDHGHHDFSpfjdipii,O6lo:pgfihjZGFjHDG",
"FGKGSFjjfuipp7ozcX>fggiihjSDGDLHDHHjgfjjgiifg:oczo:fhiijjSGjFHHG",
"HFGGHGjjhjhii7ozzo:pjpuhhifSZZJKHHJKFjjhdphhd,ocvo<hjiidgjfGHGJG",
"KJjJHjfjfdppg<ozzX<pgffhjjjFZHHGHHHHDFjddiuui>ozzX:hjgfpdfhGJJHJ",
"HHjGDgfjhpphj<olzo<phggdjjFGGGHGFJHjjjjfuiiuf7ozlX<iihagfhjjjJGG",
"FFjjjffjjhfhsqO64o0hdddghdpjjSHShFFjAjjdijgjhqo65o9ijhuihjShdjFG",
"FjhZgphgipjas7 52o0gphjgiidipZGjpdhjhhddghhhs7 63oqgjgtigippihSS",
"9,,999999q0ee& 64 ,eeeyyqqq<77e8770<79<r07878& 65 ,88eyw0<,8qq77",
"oooooooOo     @nxO .  OOOOOOOXXXXooOoOO+o     @nbO   .O@OOOOoooo",
"vzlk6665553236bBVb31231235566zk66zll6663333523nBBv3322223556kllv",
"Vb323223353666l6kzl66555553326nNBb33322235566666lzll6655533336xV",
"no    O+OOOoooooXXOOOOO+X ..  @nbO    @OOOOoOoooooooOoOO.     @n",
"6 ;e00wq0q99790987:<9qq<<7<70& 66 =7e0qwwww9<887><77q9q009780% 6",
"3Xwgggdiiphpijjfhjppphjughuip> 63oephpuihapdpjjpphpaiispfjjjj7 5",
"6XqiihjhppSZjFGGppSZhSjfhhfga,o65o0jpigpfffSjFjhGDZSjjhdgjjpp9X6",
"6X7gffhjhhjDHHHGFHHDGjffgfdds<OllX7hppggjjjhjFGHHHJDSSjipdppp7oz",
"zX-ididjZjZHJKGSHHDSGZjdipffj<ozzX9jpddfjjjdjHGGKHZjGDjdfippp<oz",
"cX=pdigjjjDHGZKKPJjFHGGhpdjha>ozlo7hduipjjjGGKHGHDjjGDZSjhhpp<Xc",
"zX>pfpfifSHHjpFJJKHDHjdfggppg<ozzX>fdfhjhjSHJJHHHGJHHGGjfiidf<ov",
"6X7pfjgdgjGFFFZFGHJFjjijjyygg<ozzX<gdfifjjSFGGGHGJKFjjjjju9ui<oz",
"kX8sdhfhjhjjGGGHGhFZjSjjp9uda9o66O0fiireSFjjSSJHHHGjhjgdgiwia9o6",
"6 9adjhhfgjjSGGFAjAFSjhjuugpf9 65 0hu9<ujiudFFjGGZjZaippfffja7 6",
"3 <ufggjgggjsjhjjjjgfgddphpdh9 33 0jgutpfuihjjidjjjgppuahhhpi8 3",
"6 $7rq9007<<:,-;:-;;,>>>>77<7$ 65 %000ew99><>:*=,--=;--><<7<<% 6",
"M#     OoooOOO+oo++oooOOooOooX#nM#     OOOOooO+OOOOOoOOOooOOoX#M",
"Vnz333556zcvvvvvvvbvbczczzzz6zMBBM6333536llcvbzvbvnvxxzcczz6zcMC",
"vzz66665553355nBBx312222353666lllllkkkk5555335nVBv33331334456kkb",
"OooooOOOX     @nbo . .@OOOOOOXXXooXooOoOo     @nvO    +OOOOoOXoo",
"><7799qq89780* 66 ,w7ey0w<:908q99>>9999<988ee& 65 =7e0qw00e9>807",
"ghdpiisdsjjjj7 32oqgjhtigiidihSjZjjjfihhipjfg9 63oephduijgppijjp",
"DFZSjhgdgjhdpqo65o9ijhyihhGhijGGFSjZZdhjhggghqo66o0hfiffhgfZjDjj",
"HHJGFFjipddpp7ok6X<idhfhfjjjjJGGJGjFZfdjhapug9ollX7hppgfhjjgjDHG",
"JGSjGDhddippp<oczX,hhjdpdfhGKJHJKJjJHjdjhdiyg<olzX9jpppfjjSpjGGD",
"HDjjHDFSjgdpg<occO>hhiidghhGJGHGHDGGHGjjhhgpi<oczo7hpuidjjjDGJHG",
"GHHHHFDjfdfdf<ozcX:fhiihjjGZFHGGFGKGjFjjfihfd<Ozzo<gffgjgjFHJHHH",
"GKKFZZjjgdppi<ozlo:pgpdjGjpgFHGGFHGGHFhhhfhidqOllX7sppdhjjjGGHGH",
"HHGjfhgffjfdf7o66o7ighjhhjduZGFDSSGSFhpdfhfdg7O66oqpiiupjGjjFFJJ",
"DZjZgippdhhjf7X53X<igghidduiFGDSjjFSjhppidffg7 56 qfdjppjiudjFjG",
"jjjgppiahghpi0 33 7gspaidhfgjhffjgpgjgghggfip8 33 8hgggapuijjjpp",
"-:-==-=><<7<<$ 66 %0e0099,,,,;;===;;,,,<779><% 66 &087eq99><,,=&",
"+OOooOooXXXoXX@nn#     oooooooOoXoXoooooXXooX #MM#     ooooXooo+",
"NbbbbbvvxzzzzvMBVN6325556zcxbnnnvbnbbbvccvzlzvMBCM6335666zvvvbbN"
};
