/* XPM */
static char *f05e1fd2e20e4878822b41f2005f6510[] = {
/* columns rows colors chars-per-pixel */
"64 64 117 2 ",
"   c black",
".  c #010101",
"X  c #020202",
"o  c gray1",
"O  c #040404",
"+  c gray2",
"@  c #060606",
"#  c #070707",
"$  c gray3",
"%  c #090909",
"&  c gray4",
"*  c #0B0B0B",
"=  c #0C0C0C",
"-  c gray5",
";  c #0E0E0E",
":  c gray6",
">  c #101010",
",  c #111111",
"<  c gray7",
"1  c #131313",
"2  c gray8",
"3  c #151515",
"4  c #161616",
"5  c gray9",
"6  c #181818",
"7  c #191919",
"8  c gray10",
"9  c #1B1B1B",
"0  c gray11",
"q  c #1D1D1D",
"w  c #1E1E1E",
"e  c gray12",
"r  c #202020",
"t  c gray13",
"y  c #222222",
"u  c #232323",
"i  c gray14",
"p  c #252525",
"a  c gray15",
"s  c #272727",
"d  c #282828",
"f  c gray16",
"g  c #2A2A2A",
"h  c gray17",
"j  c #2C2C2C",
"k  c #2D2D2D",
"l  c gray18",
"z  c #2F2F2F",
"x  c gray19",
"c  c #313131",
"v  c #323232",
"b  c gray20",
"n  c #343434",
"m  c #353535",
"M  c gray21",
"N  c #373737",
"B  c gray22",
"V  c #393939",
"C  c #3A3A3A",
"Z  c gray23",
"A  c #3C3C3C",
"S  c gray24",
"D  c #3E3E3E",
"F  c #3F3F3F",
"G  c gray25",
"H  c #414141",
"J  c gray26",
"K  c #434343",
"L  c #444444",
"P  c gray27",
"I  c #464646",
"U  c gray28",
"Y  c #484848",
"T  c #494949",
"R  c gray29",
"E  c #4B4B4B",
"W  c #4C4C4C",
"Q  c gray30",
"!  c #4E4E4E",
"~  c gray31",
"^  c #505050",
"/  c #515151",
"(  c gray32",
")  c #535353",
"_  c gray33",
"`  c #555555",
"'  c #565656",
"]  c gray34",
"[  c #585858",
"{  c gray35",
"}  c #5A5A5A",
"|  c #5B5B5B",
" . c gray36",
".. c #5D5D5D",
"X. c gray37",
"o. c #5F5F5F",
"O. c #606060",
"+. c gray38",
"@. c #626262",
"#. c gray39",
"$. c #646464",
"%. c #656565",
"&. c gray40",
"*. c #676767",
"=. c #6A6A6A",
"-. c gray42",
";. c #6C6C6C",
":. c #6D6D6D",
">. c gray43",
",. c gray44",
"<. c #747474",
"1. c #767676",
"2. c #7C7C7C",
"3. c gray49",
"4. c #F9F2BF",
"5. c #F9F2C0",
"6. c None",
/* pixels */
"  & z ) _ { { P x <     p z <   & & e T ..Z   O & & & & = = n { ) 4   O & & O & & 8 W { Z & & = O = z p   & x ) ) [ _ P x <     ",
"  & d ) _ _ T A z <     ) ..u = n A n T { A Z A A J J A A Z A _ W Z A A A A Z A Z n T ..A n J J e < _ W O O d ) _ ) T J z <     ",
"  = p ) ..Z W A d <   O ..-.d 8 ) *.@._ _ _ @.@.@.@..._ _ ..) ) _ ..@...........{ { ) W ) @...*.Z 4 ....O O p _ { A W A z <     ",
"  < p ) ,.= J W d 4   O P _ u 4 J _ W W ) T ) _ ) ) W ) ) ) W ) W T ) T T T T W T J P ) J A T ) x < W T   = p @.@.# W P z 4     ",
"  4 d P 2._ d Z x 6     x A 4 O 4 4 e T { n 4 e 8 8 8 8 e e z _ T e e u p e e u e u P { x 4 8 u < & n x O < d T 2.Z d J z 4     ",
"  4 z T @.>._ A x 6     < =         4 _ @.n                 Z @.) 4               8 _ @.n           = =   2 x P *.-.) A z 4     ",
"    < u A Z n u =             5.4.  u _ ..Z O   4.4.4.4.4.& A @.) e   4.4.4.4.4.  e _ @.A O   5.5.          = u n A n u =       ",
"  e z d =     e x j =   4.4.5.5.5.  e _ @.A O   5.5.5.5.4.O A @.) e   4.5.5.5.5.  e _ @.A O   5.5.5.4.4.O e z d =     e x d =   ",
"O T -.@.u     Y ;.@.u   5.5.4.5.5.  e _ ..A O   5.5.5.5.5.O F ..) e   4.5.5.5.5.  e _ ..A O   5.5.4.4.4.O T -.@.u     T >.@.u   ",
"& A ..) e   O A ..) r   4.5.5.5.5.  e _ ..A O   5.5.5.5.4.# A o.) e   4.5.5.5.5.  e _ ..A O   5.5.5.5.4.& A ..) e   O J ..) e   ",
"& A .._ e   O J .._ e   4.5.5.5.5.  u _ @.Z O   5.5.5.5.4.& A o.) e   4.4.5.5.5.  u _ @.A O   5.5.5.5.4.& A @.) e   & A ..) e   ",
"& J ..) 8   & J ..) 8   4.5.5.5.5.  u _ ..Z     5.5.5.4.4.& J ..) 8   4.4.5.5.5.  u _ ..Z     5.5.5.4.4.& J ..W 8   O J ..) 8   ",
"& A @._ 8   & A ..) 8   4.5.5.5.5.  u ) @.Z     5.5.5.5.4.& A @.) 4   4.4.5.5.5.  u _ @.n     5.5.5.5.4.& A @.) 8   & J @.) 4   ",
"& A ..) 8   & A ..) 4   4.5.5.5.5.  u ) ..n     5.5.5.5.4.& A o.W 8   4.4.5.5.5.  u ) @.Z     5.5.5.5.4.= A @.) 4   & A ..) 8   ",
"& A @.W 8   & A @.) 8   4.5.5.5.5.  u _ o.B O   5.5.5.5.4.& A o.) 8   4.4.5.5.5.  e _ ..n O   5.5.5.5.4.& A @.W 8   & A @.) 8   ",
"& Z @.) e   O Z ..) e   4.5.5.5.4.  e _ ..Z O   5.5.5.5.4.& A @.) 8   4.5.5.5.5.  e _ @.Z     5.5.5.5.4.O Z @.) e   O Z @.W e   ",
"O P *.) e   O P *.) e   4.5.5.5.5.  u [ ..n O   5.5.5.5.4.& J @.W 8   4.5.5.5.5.  u { ..n O   5.5.5.5.4.& P *.) 8   O P -.) 8   ",
"O Z ) Z &     x ) J 8   4.4.5.5.5.  r _ { n #   5.5.5.5.4.# F ..T e   4.5.5.5.5.  e _ { n O   5.4.4.4.4.O Z ) Z =     z ) J 8   ",
"  O 8 d d p p u 8 & O     O O 5.5.  8 _ { b O   5.4.4.4.4.  A ..T 8   5.4.4.4.4.  8 { { n O   4.5.  O     O 8 p p p u u 8 &     ",
"  & x { ..*.*.T x <     p x <   & & 6 _  .z O O O & & = = & B *.T 4   O & O O & O 8 _ ..x = = = O < x p   O z { ..*.@.T x <     ",
"  & d ) _ { T A z <     ) ..u < x A n _ { n n F A J A F J n A o.T B Z A A A Z A Z n ) { Z Z J J 8 8 { )   O d ) { _ T J z <     ",
"  = p ) ..A W J z <   O { >.d u T *.o._ _ )  .@.@.....[ [ { { _ ) { @.@.........{ { _ ) _ @...*.n 8 *...O O p _ { A W A z <     ",
"  < d _ >.= J T d 4   O P _ u e Z _ W W _ W ) _ ) ) ) W ) ) W _ W T W W T T T T P J W _ J J P ) z 4 ) P   = p @.@.O W P z 4     ",
"  4 d P 2._ d Z x 8     x A 4 & < 4 e _ ..n 9 9 8 8 8 8 e 8 n @.W u e u u e u u e u W @.x 4 8 u < = Z z   4 d T 2.Z z A x 4     ",
"  4 z T @.>._ A x 4     = = O       6 _ @.Z                 Z @._ e               8 _ @.Z         O = =   < z P -.-.W J z 4     ",
"    = u A A n u =             5.4.  u ) ..Z O   4.4.4.4.4.& Z ..) e   4.4.4.4.4.  e ) ..A O   4.5.          = u n Z x u =       ",
"O e z p =     e x d =   4.4.4.4.4.  u ) ..Z &   5.5.5.5.5.: A @.) 8   4.5.5.5.5.  p ) o.Z O   5.5.4.4.4.& e z p &   O e z d =   ",
"< P >...e   = P >...u   4.5.5.5.5.  u ~ ..Z O   5.5.5.5.5.= A ..W e   4.5.5.5.5.  u ) o.n &   5.5.4.5.5.= P >.{ e   & P >...u   ",
"& A @.W e   O J @.W e   4.4.5.5.5.  u _ ..Z O   5.5.5.5.4.& J ..W e   4.5.5.5.5.  u _ ..Z #   5.5.5.5.4.& J @.) e   & J ..W e   ",
"& P ..W u   & J ..W u   4.4.5.5.5.  p _ { Z &   5.5.5.5.5.& J ..W u   4.5.5.5.5.  p _ { Z =   5.5.5.5.4.& J { W u   & J ..W u   ",
"= J { T p   & P { T d   4.4.4.5.5.  p ) _ A =   5.5.5.5.4.= K { T d   4.5.5.5.5.  d _ _ A =   5.5.5.5.4.= J { T p   = J { T p   ",
"& P ..T d   & J ..T d   4.4.5.5.5.  p { _ J <   5.5.5.5.4.& P { W d   4.5.5.5.5.  u [ _ J :   5.5.5.5.4.& P ..T d   O P ..W d   ",
"O J ..W d     J ..W d   4.4.5.5.5.  u _ [ J =   5.5.5.5.5.O J  .W d   4.4.5.5.5.  u _ _ J =   5.5.5.5.4.# J  .W d   O J ..W d   ",
"O A ..) p   O A ..) p   4.5.5.5.5.  u _ { K =   5.5.5.5.5.O A ..) d   4.4.5.5.5.  e ) { P =   5.5.5.5.4.O A  .) d   O A ..) p   ",
"O Z .._ p     Z { _ d   4.5.5.5.5.  8 W ..K =   5.5.5.5.5.O B { _ p   4.5.5.5.5.  8 W ..P &   5.5.5.5.4.O B  ._ p     n .._ p   ",
"  n @...p     Z @...p   4.5.5.5.5.  6 W ..J &   5.5.5.5.5.  n  ._ p   5.5.5.5.5.  4 ) o.J &   5.5.5.5.4.  B @. .p     Z @...p   ",
"  x W T <     p W ) e   5.5.4.5.5.  4 W ..K O   5.5.5.5.4.  n { [ u   5.5.5.5.5.  4 W ..K O   5.4.4.5.5.  b W Y <     p W ) e   ",
"  & 8 d d p p u 8 =     O O   5.4.  < T o.F     4.4.4.4.5.  x { _ r   5.4.4.4.4.  < T ..F     5.5.  O     O 6 p p p u u 8 =     ",
"  O x { @.*.@.T x =     d x < O & & 4 P #.A   O # & = = = = z _ [ 8   O & O O & & 4 J { A # & = O : x u   O x [ ..*.@.T x =     ",
"  & d ) _ { T J x <   O W ..p 4 Z A Z P  .J n F F F F F A Z Z _ ) Z Z A A A A A A n P { J Z J J 8 e ..) O O j ) { _ T J x <     ",
"  = p _ ..Z W J z <   O ..-.d p _ *.@.{ ) _ @.@.o....._ { .._ _ )  .o.o.......{ ..{ _ ) _ @...*.z e -...O O p _ { Z W A x <     ",
"  < p _ >.= J T d 4     T _ u u P ) T T _ W ) _ ) ) ) W ) ) W ) W W ~ W T T W W T Z P { P J T ) d 4 ) P O = p ....& W J x 4     ",
"  4 d P 2._ d Z x 4     x A 4 & 8 4 e P @.n 8 e e 8 8 9 e e p { T e e u u e e u e e P @.n 4 8 e = < A z   < d W 2.Z d J x 4     ",
"  4 z T @.>._ A z 4     < =         e W @.Z                 d @.{ <               p W ..A           = =   4 x P *.-.) A z 4     ",
"    = p A A n u =             4.4.  p W @.Z O   4.4.4.4.4.= Z  .{ e   4.4.4.4.4.  u W @.Z O   4.5.          = u Z A x u =       ",
"O e x p =   O 8 x d <   4.4.4.5.4.  u W ..Z &   5.5.5.4.4.= B ..) e   4.5.5.5.5.  u ) ..n &   5.5.5.4.5.O e z p &     8 x d =   ",
"= P >.{ u   & J >.{ u   4.5.5.5.5.  u ) ..Z O   5.5.5.4.4.& Z o.W e   4.4.5.5.5.  e ) ..Z &   5.5.5.5.4.= P >.{ e   & J >...p   ",
"= A ..T e   = A @.T e   4.5.5.5.5.  p _ { x &   5.5.5.5.4.= F o.W e   4.4.5.5.5.  p _ { x &   5.5.5.5.4.= A @.T e   = A @.T e   ",
"= J ..T 8   & J ..P 8   5.5.5.5.5.  u _ _ x O   5.5.5.5.4.= F ..T 8   4.4.5.5.5.  u { _ x O   5.5.5.5.4.= F ..Y 9   & J ..T 8   ",
"& A @.P 8   & A @.P 8   4.5.5.5.5.  u _ { x &   5.5.5.5.4.& A @.P 8   4.4.5.5.5.  u _ { x &   5.5.5.5.4.& F o.P 8   & A ..P 8   ",
"& A ..J 8   & A ..J 8   4.5.5.5.5.  u _ _ x &   5.5.5.5.4.& F ..J 8   4.5.5.5.5.  u { _ x &   5.5.5.5.4.= A ..K 9   & F ..J 9   ",
"& A ..P u   O J ..P e   4.5.5.5.5.  e _ _ n &   5.5.5.4.4.& A ..P e   4.5.5.5.5.  e _ _ x =   5.5.5.5.4.# F ..K r   O A ..P r   ",
"O A ..T u   O A ..T u   4.5.5.5.5.  e ) _ Z &   5.5.5.4.4.O F ..P u   4.5.5.5.5.  e ) _ n =   5.5.5.5.4.# F  .Y u   O A ..T u   ",
"& J ..T u   & J ..T e   4.5.5.5.5.  u ) _ n &   5.5.5.4.5.& A  .P e   4.5.5.5.5.  u ) _ n &   5.5.5.5.4.# F o.T e   & J ..T u   ",
"= n J n 8     x W J r   4.5.5.5.5.  u ) [ Z =   5.5.5.4.4.= A { P u   4.5.5.5.5.  u ) _ Z &   5.5.5.5.4.= A ) A 8   O n ) P u   ",
"O 4 < 4 &   O = < < &   4.4.4.4.4.  e ) _ Z =   5.5.5.5.4.& A { W u   4.5.4.5.5.  e ) { Z &   5.5.4.4.4.# 4 4 < &     < 4 4 =   ",
"    u J T ) T Z u O       O   5.4.  8 _ { Z O   4.4.4.5.5.  Z @.T e   4.4.5.4.4.  8 _ { Z O   4.5.  O       u A P W T n u O     ",
"  & x { { ..{ P x 4     d x < O & & 8 _ { x & O # & & = = & n ..T 8   O & O O & O 8 _ { x = & = O < x p   & x { ....{ T x 4     ",
"  & p ) { ~ P Z z <   O ) ..u 6 A A z W _ n n A F F J A J n A { J d Z J A A A A Z x ) _ z d P J 4 u ..)   O p ) { W P A z <     ",
"  = p _ @.e ) Y d 2   O { ;.d d ..*.) ) [ B W *.@.o..._ {  .{ { W T @.......@.{ { { _ _ J ) @.@.j p >...  & p .._ u { J z <     ",
"  4 p W 2.d d P z 4   O Y _ u p W _ _ _ { P T _ _ ) ~ ~ W _ _ W W ) ) T T T T W P P T J P Y P ) p e _ P O < p _ <.< n P z 4     ",
"  4 z P ,.>.A Z x 8     x A 4 & 8 8 6 8 p u e e 9 8 8 9 e u u u u u e u u r e u u e u e 9 8 9 r = 4 A x   < z P <...Z A x 4     ",
"  < z P { { ) A d 2     = =                                                                       O = =   < z P { { ) Z d <     ",
"  O = < 8 8 4 4 = O           6.6.6.6.6.6.6.6.6.6.6.6.6.6.6.6.6.6.6.6.6.6.6.6.6.6.6.6.6.6.6.6.6.6.          & < 8 8 4 < = O     "
};
