/* XPM */
static char *eee7c649fe104c16df659817eea9fc9d[] = {
/* columns rows colors chars-per-pixel */
"64 64 43 1 ",
"  c #010101",
". c #080705",
"X c #090906",
"o c #0E0D09",
"O c #100F0B",
"+ c #14120C",
"@ c #18170F",
"# c #181710",
"$ c #1D1B12",
"% c #211E15",
"& c #242216",
"* c #262418",
"= c #29261A",
"- c #2D2B1C",
"; c #312E1E",
": c #332F20",
"> c #353221",
", c #3A3624",
"< c #3D3A26",
"1 c #413D29",
"2 c #46412B",
"3 c #4A452E",
"4 c #4D482F",
"5 c #4E4930",
"6 c #534D33",
"7 c #565135",
"8 c #595337",
"9 c #5C5639",
"0 c #5F583A",
"q c #635C3D",
"w c #67603F",
"e c #68613F",
"r c #665F40",
"t c #676040",
"y c #6B6442",
"u c #6F6845",
"i c #716A46",
"p c #756D49",
"a c #77704A",
"s c #7B734C",
"d c #81784F",
"f c #857C52",
"g c #8D8457",
/* pixels */
"q9qqrqqy0tyqqq9qu0wr06870ywyyuw0ryyuury08980q00yyipi9qpyqqq69q89",
"qiu90qtt99qqtwyqy00q0080rr0yyw0uyur0r000q0q99wq0uqtpyqqq98096908",
"ruq97q0tqqttqyiq0y000qywqyppryryuuq070009q0qq0q0yuyyit799qrr88q0",
"yy999q0yyqtuuyy8wwwy0qiy0yurrrrqwy0q86880qqq0qq9qtyutq9qqqqq0qqq",
"qq9qqyr0q99qpyqw0wuy0wruryywrruwwywq00qqqqy09qqqtqyqqqtrq0qqrqqq",
"0q99qq9qy9qqyqqyrruyyyttyyyyeryr0qq88ywwqqqywq8qqquyyuyqqyyqqqq0",
"ywqqq98908qqqyyyuuiiyyuwr0wyw0ry5-+++-7wwtyq9998quriyuyqyyyyq9qq",
"qwqqq9q97qqryyuiqua0riywyw0r0ww7o  .  +7yuiq9yy7qyqyippyyyqqq0r0",
"0qq999q09qyy96357wiwyuqw0wy00ry: =>;&+ 3uqq0qpiqqyiypspq9qq009q8",
"yyq9980yiyq>O. .+3upw8000wq0wqi$+q61,X tyqqqyuaiqyyqiiyq00q097yy",
"qqqqqqqiy9@ .OOO  0p00q0ry0800d-Ouu9$ 6pqq9qyypuyyiqyyqyq8998qqu",
"09qq0qyii- >21;&% 1iqwq78009wya0 &,OX9syqwq9yyqqiiiq0iy879970qqp",
"qyqqyqwypO-qqq2>O.0yyy0870y80u0pq$%>up0q9qiyiywiisyqqyr88999q6qu",
"qtw0yqqqe+*pyyq> >pyirrw0wiq0q0epssdr9r09qyupiyuequiyqq906998qw9",
"99qy9qq8y4 6si5 %u00eqyrqqqy80ye9uy689qqqtyuipyqqyiiqe8588868iqq",
"079uy0qqug< $+ =pw8r0qqq0eq98rqqqqq88999ywtipiyiqyiqq99668q68wee",
"q98ept0wwud0:>6si59tq0008qw80uy0q98q09qyyyyuiyypiyy9q08636q8q00y",
"9q08yyy0ruypdittr97qqyyt8w90yrue6699qyyyyyq9yyuuyyyq07656099y97q",
"9tq900yuyry0qwt0qtwt0qyqw0wwu00eq677qqqy2&OO$3eyuqq98qq736086779",
"0q09000uurtqtiu79qqr89rqwyurqr000qqqyyq-   . .2q90099qq08707698q",
"7qw80yyiiy0rtu08700yyryyyyu8wtq08quqqp5 $>-*% +q87979q9qq88699qq",
"008y00uwrit0tr70wwqwyqqupu080qtyq9uiqp1.086,*OX90690qtt070860yqq",
"r00qw0yuyyuq0y99tyqtp090iy0w08uq9qqyypq.2sy6>.+q0q0q9quq07880q80",
"wqqr00ttyur00090tw7ty0yq00000ywuuuyquyd1 2sq= ,y9q000qy085890990",
"00000w00uy80090iq9qr0qyy79000ppisiiqyyqf3 @+ *yq80q9te0988q99qwq",
"0y000wrrr088970009iq098qy99tw0qyyiirquqigy;$1eq8qqqq9qqqqeq9q8yq",
"0r0000r00088777967tty079uy90rr00ypyiqquyquppiq988qq90yyqq9qqqqqq",
"q0rrw0088008867t6q0quq97tpt0yqqypuuyyq99850w99y09qq99yq9y09q0quy",
"0wyq788000q966600y0700q07yyyqtqpiqyyqqqq96698899q96yq8qqyr9qrqqq",
"0wy0678000788779068600yq00qypi0yyiywq9r09q999q08ww9w08qyqqqrtqqt",
"ry0098080079008q869900t09990uurrpsiqq9qqqqq06qq89wqqyqyq99qqqqq9",
"0rw081>==18808966800w7qt9qtyupu0qieq9q68q8998qq9qq9yy9r98qqqrqtq",
"yuw0:.   .<q079669eqqq08qqquqypyqyqq80868070y990yyyprqqq99qqq9qi",
"uiy; .$$@ @009568qq89qqqqqqyuyyiy699qyq98q0009qwuiytquq9q99qq8qu",
"ys6 $2<;&.+87758q0990qqqrq9ttuyyq7990qqqqqq09qyyyy089qqqqrqqqqqu",
"is<o0642-.+88979w0qeqqq80qqq0yy9qqq98qq075600quyyiqq09y0qyq09ytt",
"ys7 7w84: &09qqq089yqqyq090wyw999q09qq,$O..O;qyiiuyyq9qyqqqyyyyq",
"qts*X0w6$ 2q9qq97qq89<-*<9qw00q8q90t8$  .OX  %qiuyyqqqryyyqqyyyy",
"tqii+X;$ -y0qqqq090q:    *9q89qqq99q$ &>,;&$O 5stttqtyrryyqqyyyq",
"uuyuu,@$,qq899q860q6OX%$O -098qq9qy1 >0663,;$ 5pqqqttqyyqyyyuyrr",
"tyy0eyyyu88860q88896.:1=& O99qq980y=+ywq0093 Oiyqyyyqqyyyiuiyyqe",
"wqe9q679698866qqq98p$+03$ &e88q89qi>oyeeii7X.ysqqyyqqyyuyiuqqywy",
"qqqq08978qq7999yqqqu6oO+ %qq7699q0wy.&yiq; @usqqqipqqyyiqquyywyy",
"t77988989qq6qy99qyq6yw:=6iq89879890pqOO$X+5spqqeqeiqqipytyyyyqew",
"054788809qq8876q0986yypsuq760089q000pp639pfitq9qq9yyippiyyqqyytq",
"706780qqqt999988657997088976780qqwq09ipypyyyytqyiqyiiyeyyyurtiu9",
"000090qqy96yyq09qq988088q93780q0qyq8q00t99w9qiy9yuiiqyyqytyyy0q9",
"q99wqqqqi079t98q86798w000060q9qqqtutq0qyq69qyyy8yiyyqpiwtq990950",
"9780qyq8qqq9qq868977qq8089qeqqqqq0yuwq0y00tqyuyypy06<<1qpqqq0066",
"99t00ywq0ypq78q97956qq6qq9qyqqqqq80wwyq0qqytypuy7;+    $9q0q00q9",
"q60q0wyyyps869qqqy8qqqyyq9qqq9wey99q7qt780qtqyi>  .@$#O *w00q0qq",
"98qwqyyyyqytq977qqqrqytq99qw99qqwq0q7qq989qqya4 O>33<;& %t999q70",
"0y00quqqiiq3;@Oo+<78ty99q99qqqq9090q9t06000qys> 0qq063= ,p987807",
"990qyuyyy0&   ..  1q0q90q0969eqq8qq809689ty0qq9.:dswq8$ qyqq8800",
"98qyyutq0O $-;;=$ ;u0qq979987qq99t0900000qtywwp7 @6t0- ,p8q9900q",
"q8qyytyy= >9755<$ 5utq009qqeq9q99t98q99qy99tqiqsy%.++.1iq9000q09",
"q0wyyyipo$yqquw< =syqqq9000wq87960q90090qqyqqq89psq66yst99qqq0q8",
"qwtqytys> 3wyu< $sa00w9qq0990006790q0qyrqyyyqqq900ussptq990qqq0q",
"0ut0tt0tp> +@O >asw0qqqw000000060900wyy09qyw0qq0qq09qqww99qqryq8",
"tu090t00usq<;3ipyw9qy0yy000990wtyqryttyqqqq89yq90qq00tuwy00rq099",
"tyt99970yqsssssw99ytqyw980q099tyuyqqqtyuyrq88tpq0yqqwiyyrt99098q",
"r0wq0979qqqqqq0q8qyw0ww67098wqyyuiytqypy9q8q07tyyqqrpiqyyqtq9q89",
"yy0qq69yq00q8qq79yw9q99089qqwtqyiyypuyt9900q000qyii0yyuuq09t00r0",
"qq7qt58qqqqq8qqq0yuq888qqqwyyyytyyuiuyt90q9q00990uuttisiqq9qq0qq"
};
