/* XPM */
static char *_0f2a8af5cfd466c838e6126a8d7bd55[] = {
/* columns rows colors chars-per-pixel */
"64 64 255 2 ",
"   c #020202",
".  c #080705",
"X  c #0A0906",
"o  c #070708",
"O  c #080709",
"+  c #0C0B0B",
"@  c #100F0D",
"#  c #12100E",
"$  c #1D180A",
"%  c #100F10",
"&  c #141312",
"*  c #181714",
"=  c #1A1915",
"-  c #1D1C1B",
";  c #221C0E",
":  c #231E13",
">  c #211F1C",
",  c #28220E",
"<  c #252114",
"1  c #2B2412",
"2  c #2F2816",
"3  c #24221C",
"4  c #2A251A",
"5  c #2E291D",
"6  c #322A15",
"7  c #332C1C",
"8  c #37301E",
"9  c #3B321D",
"0  c #252322",
"q  c #292621",
"w  c #2D2A24",
"e  c #2E2D2C",
"r  c #322E23",
"t  c #322E28",
"y  c #353024",
"u  c #3B3423",
"i  c #3F3824",
"p  c #35322B",
"a  c #3A352B",
"s  c #3E382D",
"d  c #333131",
"f  c #393631",
"g  c #3B3A35",
"h  c #3D3C3B",
"j  c #43391D",
"k  c #403722",
"l  c #423A25",
"z  c #483F27",
"x  c #443D2B",
"c  c #483F28",
"v  c #433D34",
"b  c #413E3B",
"n  c #4B4126",
"m  c #47402D",
"M  c #4B432C",
"N  c #51462C",
"B  c #554A2C",
"V  c #5B4F2C",
"C  c #464033",
"Z  c #4C4434",
"A  c #4F4837",
"S  c #43423E",
"D  c #4E493E",
"F  c #504731",
"G  c #544B34",
"H  c #584F35",
"J  c #564E3B",
"K  c #5D5234",
"L  c #5C523B",
"P  c #635735",
"I  c #665936",
"U  c #60563B",
"Y  c #65593B",
"T  c #6B5D3D",
"R  c #6E613C",
"E  c #74653D",
"W  c #3F3F40",
"Q  c #454342",
"!  c #494643",
"~  c #4B4945",
"^  c #4D4B4A",
"/  c #544D40",
"(  c #514E4C",
")  c #575044",
"_  c #5C5444",
"`  c #52514E",
"'  c #545252",
"]  c #605745",
"[  c #645B44",
"{  c #695D42",
"}  c #645C4C",
"|  c #685F48",
" . c #665E52",
".. c #6E6141",
"X. c #6E644B",
"o. c #736544",
"O. c #766845",
"+. c #7B6C45",
"@. c #72674B",
"#. c #75694B",
"$. c #7B6D4A",
"%. c #7E7047",
"&. c #7F714D",
"*. c #6C6452",
"=. c #716755",
"-. c #736A54",
";. c #7A6E53",
":. c #766E5E",
">. c #796F5A",
",. c #7E7254",
"<. c #7E745A",
"1. c #817145",
"2. c #83744D",
"3. c #897B4F",
"4. c #827553",
"5. c #887852",
"6. c #8B7B53",
"7. c #82765C",
"8. c #85795B",
"9. c #8B7C59",
"0. c #907F58",
"q. c #857A61",
"w. c #8A7D62",
"e. c #827969",
"r. c #8E805C",
"t. c #958359",
"y. c #92835E",
"u. c #A18E5E",
"i. c #8D8162",
"p. c #8C816B",
"a. c #928564",
"s. c #988760",
"d. c #978963",
"f. c #9B8C64",
"g. c #92866A",
"h. c #95896C",
"j. c #9A8D6C",
"k. c #9E906D",
"l. c #8F8670",
"z. c #978C74",
"x. c #9C8E72",
"c. c #9D9174",
"v. c #9D927B",
"b. c #A08F64",
"n. c #A39266",
"m. c #AA9863",
"M. c #A4946C",
"N. c #A8976D",
"B. c #AA9A6D",
"V. c #B19D6C",
"C. c #A39574",
"Z. c #A69874",
"A. c #AA9B75",
"S. c #A2957B",
"D. c #A6997B",
"F. c #AA9C7C",
"G. c #B09E72",
"H. c #B09F78",
"J. c #B5A16D",
"K. c #B8A46E",
"L. c #AEA07B",
"P. c #B4A173",
"I. c #B3A37C",
"U. c #B8A679",
"Y. c #BAA97D",
"T. c #C0AC7E",
"R. c #9E9481",
"E. c #A69A82",
"W. c #AB9E82",
"Q. c #AEA184",
"!. c #ADA38B",
"~. c #B2A484",
"^. c #B7A984",
"/. c #BCAC83",
"(. c #B2A68A",
"). c #B6A98D",
"_. c #BBAC8B",
"`. c #BFB185",
"'. c #BFB08D",
"]. c #AFA793",
"[. c #B5A992",
"{. c #BAAD93",
"}. c #B6AD9C",
"|. c #B9AF9A",
" X c #BEB194",
".X c #BBB19D",
"XX c #BFB6A5",
"oX c #C1AF83",
"OX c #C0AF8B",
"+X c #C2B185",
"@X c #C4B38B",
"#X c #C8B78C",
"$X c #CBB98E",
"%X c #C5B592",
"&X c #C8B791",
"*X c #C7B894",
"=X c #CCBB94",
"-X c #C3B69B",
";X c #C6B99B",
":X c #CCBD9B",
">X c #D1BF95",
",X c #D1BF99",
"<X c #C4BAA4",
"1X c #CCBEA2",
"2X c #CEC09E",
"3X c #D3C196",
"4X c #DBC697",
"5X c #D3C29C",
"6X c #D9C69D",
"7X c #DCC99E",
"8X c #E2CE9E",
"9X c #CEC1A3",
"0X c #CEC3A9",
"qX c #D5C5A2",
"wX c #D8C7A2",
"eX c #D7C8A6",
"rX c #DBCAA4",
"tX c #D3C6AA",
"yX c #D6C8AB",
"uX c #DBCCAB",
"iX c #DED1AD",
"pX c #CFC4B0",
"aX c #D4C8B1",
"sX c #DBCDB1",
"dX c #DED0B3",
"fX c #DBD0BA",
"gX c #E1CEA5",
"hX c #E1CFAA",
"jX c #E4D1A5",
"kX c #E3D2AC",
"lX c #E9D6AE",
"zX c #ECD9AF",
"xX c #E3D4B3",
"cX c #E9D7B2",
"vX c #E7D8B6",
"bX c #EBDAB4",
"nX c #E2D6BB",
"mX c #E6D9BB",
"MX c #EBDCBC",
"NX c #F2DFB8",
"BX c #EFE0BF",
"VX c #F2E1BD",
"CX c #E5D9C3",
"ZX c #EBDEC3",
"AX c #EADEC9",
"SX c #EFE1C3",
"DX c #EEE2C9",
"FX c #F2E3C4",
"GX c #F6E8C7",
"HX c #FAE9C2",
"JX c #F3E5C9",
"KX c #F5E8CE",
"LX c #FAEBCA",
"PX c #F4E7D0",
"IX c #FAECD2",
/* pixels */
"N.5.k ; 1 5 7 2 9 i l c G B B G m x k 9 6 2 2 1 1 ; : ; $ 1 ..f.f.2.9 $ $ 3 < , 1 2 6 9 n N H [ #.;.#.o.{ P K F k 2 ; ; ; 2 &.N.",
",.+ d ` ^ ! S Q h g h h h h b h b g h Q S b Q ! ! ^ ( ` ` g . o.4.+ d ` ^ ~ ! ~ Q b b h h h d - + X + % & 0 d f h b ~ ` ` g + T ",
"4 p LXGXbXBXbXFXMXMXFXJXAXDXSXmXMXSXZXxXbXvXFXBXZXZXSXPXKXFXt 7 9 w ZXMXuXwXdXMXxXvXmXAXDXCXsX9X[.}.XX<XpXtXuXZXZXSXGXIXIXVXy : ",
": A NXuXuXrXjXlXkXkXhXkXbXhX6X6X>XwX6XrXuX,XhXuX5X,X,XqXwX6Xy x x p 3X:X2XM.d.n./.5X5X5XqX3X3X6XrXlXbXBXFXgX7XvXwX6XwXuXgXjXa 7 ",
"1 b vXuXuXuXqXOX^.L.Q.(._.>X7XrX5X,XrXhX6X3XuXaX5XsX,X#X5X5Xw F Y -  X2X:X*X_.k.d.A.tXyX#X&X@X=XwX3X5X5X#X^.:X;X;X1X*XoX=X:Xw x ",
"2 w _.L.A.(.F.n.Z.L.{.(.D.(.{.@XkXkX6X,X,X,X,X,XqXsX=X%X5X-X0 U +.+ R.3XoXyXwX+XL.j.D.0XuXuX9X=X3XuX5X3X_.n.A.Z.A.!.Z.s.L.c.& [ ",
"7 t =X%X%X^.Y.OX&X5X=X$X:X-XQ.C.{.,X6XwX6XwXhXqXtXqX5XyXuXQ.& o.%.  p.rX#X'.&X%X=X%XZ.d.F.tXsXeXtXuX3X2XrX5X:X:X;X%X/.-X:XS.+ o.",
": p yX9X2X%X%X$XqXyX5X6X5XuXyX%XD.k.,XhX,XsXeXwXuX,X5XuXkXj.. &.%.  v.dX%X*X=X=X9XtX'.B.k.E.^.5XrXuX6XeXuXMXkXeXdXqX5XqXhXC.+ O.",
": p uXhXeX,X,X&XqXuXwXhX,XqXwX>X,X+X,XsXwXdX,XrX5X=X6X=X8Xh.. 5.$.X E.dX;X:X%X%X$XtX:X/._.W.g.d.A.^.,XsXxXvXkXwX3X3XwX6XjXx.X $.",
"7 f gXuXwX#X,XwXrXqX,XeXuXwXuXwXrXxXrXuXeX,XwXuX,XqXsXaXlXS.X 2.X.* ^.wX%X/.$X%X@X%X:X:X@X_.%X(.C.v.M.F.(.A._.:X,X5XfXxXlXZ.+ +.",
"6 f rXgX>X,X6XwXsXeX6XhXeXrXhXwXqXyX6XrX5X>X,XwXhXyXsXtXuX^.& +.R 3 @X#X@X=X:X:XtX2XY.%X$X'.-X%X_. X^.D.Z.C.D.W.D.F.{.9XcX_.@ ..",
"6 f gX7X,XwXwX6XeXeX,XwX,X,XwX0XwXeX,X6XwXrX,X,X3X5X5X3X7X>X4 ..L w 3X#X%XqX$X5X:X:X$X+X:X&XqX9X;X2X:X@X%X:X$X_.Y.L.L.Z.V.+Xw K ",
"q v bXlXkXgX7XlXvXlXcX7XgXgX4XhXhXxXhX7XSXvXgXxXrXkXxX7XcXVXy A Z y MXbXqX5X3XqX5X3XeX6X6X5XwX5X,XuXqX>XuXsXwXkXrXhXkX5X=XhXs l ",
"8 * W.[._.~.Q.~.F.~.OX~.Q._.~.~.~.{.).^. X).~.^.)._.%X^.(.[.0 k i & S.[.D.k.c.a.q.>.=.*.} } D A Z ! / )  .:.p.c.W.D.Q.F.[.{.> 5 ",
"1.X   + % @ X . . + & & @ & @ + + % % % # # & # % + % % .     E 2.X   . . . .                 . . . o           o . X O   o   { ",
"K.j.[ c c c Z Z F F x c l M v 8 9 l M x l x x C x M c x A G 4.H.V.y.[ M M M H X.O.$.,.4.&.9.i.8.2.0.0.6.5.4.#.*.K n M M A L 9.G.",
"2 r x u 9 9 i s i 8 7 9 7 z r.K.P.2.l 8 7 u i m N V T R $.$.+.-.O.7.e.4.1.E @.=.P j 9 2 1 l 8.n.u.6.l , 2 u l Z G V K I { T V x ",
"Q ! ! ! S Q Q b ! ^ ~ S Q e X &.+.+ h ! ( ( ^ S b Q b e > = & & % & & & & - 0 e h Q Q ( ' p + O.1.+ d ^ ! Q W h g g h h f h h h ",
"mXvXhXdXvXvXhXhXxXmXMX0X;X9Xw 9 8 y bXBXBXJXGXMXBXFXAXfXpX<XXX{.|..X|.<X<X<X;XdXJXZXSXJXLXFXw 2 9 t bXbXSXJXMXCXmXxXCXCXsXsXuXdX",
"2X&X+X=X1X$X@X%X+X+X<X XoX=Xw M C y 7X7X5XwX6XxXhXeXkXkXkXNXlXhXMXkXlXcXhXhXrX6XrXrXvXdXgXkXt A y v 8X3XhXwXwXhX5X5X,XqX:X=X#X:X",
"0X@XoX%X1X%X;X;X@X&X`./.=X`.< ] | 3 5XwX5X=X5XuXeXqX,X,XqXuXqXuXyX,X$X,XsXwXeXuX>XrXuX>XgX^.# -.Z t rX7X5X=XeXsX,X:X=XqX:X;X=X1X",
"*XOX@X%X-XyX=XoXOX$X#X*X$X/.= ;.;.% (.gXqX>X6X5X6XeX>X$XdX6X,XsXqXwX6XqXuXuXeXhXkXwX,X,XhXC.. 7.J w eXkXeXwX5X5XqX=X@X5XyX=XOX0X",
"%X+X@X#X/.@X;X:X;XOX/.%XqXS.+ &.2.X c.7XuXaXqXrXwX6XuXqX5X5X5X,X,X5X5XkXlX4XrXvXcXrX7XeXkXh.. 6.T = _.jXuXsXuX>X,XqX=XqX5XOX#X:X",
"=XtX;X@X@X@XyX%X`.-X%X:XxXz.X 2.5.X d.uX,X5X6XwX5XgXuXqXsXuX3X=X5XmXkXbXwX@X-X_.OXyXeXhXSXv.  1.+.o C.uXwXqXeX6X#XwXqX,XaXqX$XoX",
"1XaXqX1X0X%X%X'.T.%X:X=XrXz.+ 9.q.O D.MX5X#X=X6X=X5X:XeXdXeXuXkXvXnX:X).S.D.Q.A.M.C.L.=XkX X% o.8.  z.MXuX3X3XuXwXeX5X'.).%X5X%X",
"9X%X%X:X%X%X@X#X+X`.:X`.3Xc.+ 9.$.& ).uX@X=XuXyXuX=X5X&XL.L.^.).^.D.M.~.^./.&X=X&XI.A.D.I.%Xw ..9.. E.VXrX3XsXuXvXuX,X>XQ.b.Q.2X",
"I.=X$X#X/.*X2X&X9X;X%XOX3X_.& &.o.3 @X3X$X:XsXyXuXwX>X+X/.P.L.Q.L.I.@X@X$X=X:X&XqXyX=X_.^.A.: L 2.. ~.bX3XwXnXsXyXuX6X5XeXY.b.S.",
"Z.~.@X>X$XqX%X+X0X:X`.#X@X#X5 Y K w eXuX:X$XqXuX,XeXuX>X3X6X3X=XqXqX=X$X6XnXqX3XuXsXwX6X5X@X3 z ..: :XMXeX=X5XuX5X,XeX3X$XwXwXU.",
"5XL.M./.rXMXvXuXuXgXxX6X7XgXg x l a bXxXyX$X3X7X7XuXkXjX4XgXjXgXgXlXjXhXcXvXmXhXgXcXcXgXjXVXv 9 F w cXFXvXrXgXcXgX7XrX3X7XuXgX5X",
"} [ J Z J <.g.x.c.j.z.a.C.Q.> l l > F.Q.F.k.Z.C.C.A.C.W.Q.L.Q.W.Z.h.h.g.h.c.D.S.S.S.Q.^._.W.= x l & D._.(.W.D.j.q.>.;.*. .|  .} ",
"                        o     5.4.    X X % + . . . . . + + + o           o       . . + #   . 9.4..   + X + o                   ",
"O.&.&.+.+.;.X.P H H N M M H 3.U._.a.M x x m v Z Z M c Z m m x i N { $.+.o.#.X.Y K G N x k L u.U.~.h.K l x Z L ;.,.+.2.2.8.r.2.O.",
"A.r.n 6 6 u i i l n B B P T P B F G N z z l k l k u 9 9 7 k 5.P.T.b.N 7 9 y l k 9 j M N B Y T [ -.8.5.+.....R K n 9 8 7 , 8 &.n.",
"o.+ e ~ ~ S S S S g h W h g g h h g b b b Q ! ! ^ ^ ~ ' ' h + ,.9.# e ^ ! ! Q ! Q S b h h h d - + + % & & 0 d g h h Q ^ ( f + Y ",
"< w BXBXiXuXiXuXuXdXsXnXnXsXeXnXxXvXZXmXMXBXMXBXJXJXBXJXIXLXa u i q SXHXVXBXbXFXVXFXZXAXAXZXdX1X|.}.}.|.<X0XyXdXSXAXMXDXSXcXp = ",
"3 C iXyX2XT.T.+X#X*X+X#X2X=X#X3X,X,X3XgXeX>X3XuX3X>X6X6XrXzXs x x p gXuXeX>X3X>X3XuXwXrXuX3X7XjXcXVXjXxXhX,XhXuX5X6X&X2X=X3Xa 7 ",
"< g dX2X%X*X*X`.U.`.2X;X`.`.`.@X,X=XwXkX,X#XeXuX5XyXeX5XjXeXw H ..: -XrXqXeXwX>X6X>XuXuX6X>X,X6X,X5XwXwX3X$X5XyX&XyX2X+X6X5X0 x ",
", g iX+XU.*X2X`.+X@X*X;X%X9X0X%X$X=X:X5X5X$X6X>XqXuXeXwXgX9X0 Y 5.O S.kX3XeXwXrXwX5XuXuXqXsXsX,X>XrXwX=X5X3X,X>X2XsX5X@XuX:X3 J ",
", s rXwX2X3X`.`.2X3X#X&X:X9X2X2X-X=X#X$X=X=XqXwXuXeX6XsXgX~.& ;.5.  g.NXeXwXrX7X5X5X3X,X5XeXuXqXuXuX6X$X6XuXeXrXsXqX5XyXuXQ.* [ ",
"; a yX{.L.F.f.d.j.Q.^.$X&X;X*X%XOX@X&X=X=XsXyX,XqXwX>XqXkXC.X 9.5.o E.VXeXrX5X&XwXdX6X3XeXsXuXqXqX3XwXqX5XsXuXeXuXqX3XsXkXj.o o.",
"4 > S.W.W.~.L.B.C.F.j.f./.0X%XY.T.T.$X0X:X5X5X,X3X3X=X$XjXj.X 6.&.+ Q.vXhXqX=X,XhXuXqXuXeXeXqX3X>X>XqXyX,XwX5X6XuX7XeXuXzXc.X O.",
"r q Y.%X XU.L.U.I.Y.^.c.r.B.2X*X:X:X&XqXsX$XqXqX2X5XaXyXjXF.# 5.o.& ^.xXrX=XeXwX6X>X5XeX5X3XeXwX5XqX5XwXyX3XuXtXQ.=XaX1X3X8.X O.",
"7 p =X'.`.'.`./.0X:XY./.I.H.2X;X2X0X%X=X=X%X5XyX5X9XtXqXkXY.# %...3 ,X7X>X,XrXuXuXrX6X,X,X=XuXqXwXsXwX,X,X6XhXeX_.Q.).Q.^.i.+ ..",
"5 p 6X3X`.$X`.'.:X:XOXY.2X3X`.9X%X2X=XoX$X=X&X=X5X6X=X3X7X$X3 R K t 7XgXrXqX3X6XdXdXrX6X6X7XeXxX6XrXkXhX3XuXrXuXkX5X=X&X6X$X4 K ",
"5 u jXiX3X2X$X6X:X=XwX3X+X$X=X3X5XyX5X$XnXsXwXiX3XrXxX3XbXBXa G Z 7 lXBXlXlX8XhXlXhXvXkXgX6X6XhXhXuXhXrXZXBXbXvXlXbXxXkXVXVXa l ",
"8 & v.[.L.F.Z.C.W.Z.Z.L.A.C.F.A.C.W.D.Z.Q.(.F.A.~.F.W.F.).).- x c & W. X(.D.C.g.p.q.>.=. ._ ) / / D ) _ *.e.h.C.Q.Q.).(.{. X0 1 ",
"$.X   . + + X X + + X @ & & + + + # + # + X X X + # + + .     $.5..   + X                   . . . . O o         . + % X X .   { ",
"J.f.| Z m n Z Z n i n x 9 x s 7 7 i x l l x x C x z M x Z J 6.G.J.j.[ c c N [ X.1.1.7.6.0.s.d.9.0.t.u.s.6.9.4.=.U M M Z A K 5.P.",
"1 8 a u 7 6 u a 7 1 6 7 , 9 5.V.m.+.k 6 7 u u x M B T T O.&.&.@.o.4.p.4.2.+.;.=.P N j 7 8 M r.P.V.0.z 2 7 i m F H K I T { I V i ",
"S ~ ~ ! ! ^ ~ D ~ ( ! ( ` h + o.R @ Q ` ( ( ! Q S b h w > * & & % # & & & = 3 d h h h ! ! e + 4.5.+ d ! ^ Q S g g h h b g g h h ",
"GXVXMXGXJXGXJXMXSXFXFXSXGXLXa 2 6 y HXGXZXZXFXMXnXvXAXpX-XXX|.(.].].!.]..X.X<XtXsXsXnXnXSXmX> u j q BXFXMXJXSXMXvXMXAXSXZXMXZXLX",
"NXkXgXrXrX>X3X>X3XgXsX,X3XhXa x v 7 4X7XwXhXeXuXwX:XqX5X=X3XqXxXmXrX5X6XdX6X3X=X%X$XaX:X3X6Xw J x v gX4X3XuXqXqXwXkXqXeXrXrXuXbX",
"(.^.3XMXvX:X,XqXrX3X=X:X4X3X4 _ ] q &X>X,XwXqXeXqX:X+X:X=X%XOX0XaX*X`.%X1X:X9X:X$X@X%X=X3XF.# ;.Z w eXwX5X3X,XqXqX5X3XuX=XQ.D.Q.",
"Q.Z.k._.xXvXwXwXqX=X3X6XrX/.* =.-.& {.kXqXqX=X>X3XqX%X+XyX&X&XyX:X%X`.%X:X1X%X@X*X/.Y.&XrXh.. r.J w ,X6XqX$X+X5XqX5XwX3XeX#XOX-X",
"%X%XI.d.Z.,XkXsXwX6XrXeXxXA.+ #.+.+ x.jXuXsX5X>XwX,X=X=X=X/.:X:X%X$X#X`.@X%X%X%X@X$X&X;XrXr.X y.o.& H.6XuXyX=X$XwX6XqX5XwXgXrXqX",
"qXqX5X%XC.n.9XwX3XyX5XeXMXv.X %.2.X C.cXqXqXwX5X6XqX5XqXsX;X+X#X=XtX2X%X$X/.0X:X'.9X:X9XnXl.  6.4.o h.gXqXuX:X5XqX,X#X5XsXuX=X>X",
"sXsXwXdX2X~.D./.,XrXrXeXzXS.X 8.8.X !.MXuX>X,XqX#X5X:XrXdX9X:X:XaXpX:X0X1X%X:X=X+X*X%X%XwXQ.+ ,.w.  z.GXuX>X5XeX5X5XqXqXsXqX3XqX",
"9XwX5XrXeX,X_.A.N.^.OX%XjXF.+ 5.O.& ).hX,X6XuXsXiX5X5X6X5X$X9XqX:X%X%X=X@XOX/.+X+X+X`.2XuX$X3 @.d.  7.;X/.OX2XuXuXwXrX5X5X>XqXuX",
",X,X>X>XwX6X,X:X%XW.C.A.rX;X* #.I q 5XgX>XrXdXuXsXeX=X3XqXU.C.@X>X=X5X=X+XOX=X:X0XtX=X/.I.B.- Y 6.. 7.I.M.C.(.W.(._.+XqX6X>XqXeX",
"uX6X3X3X3XdXxX3X9XuX3X5XgX7Xw P G t hXxXuX,XuXdXrX9XqX3X5X5X~.f.F.%X=X@X%X%X%X_.~.Q.C.y.f.I.w M $.* ~.sX%XOX;X XQ.~.A.M.P.%X6X7X",
"rXkX7XgXvXFXMXjXgXlXkXjXjXzXa x u s bXxXvXrX7XxXjXkXcX7XjXkXkXqX^.L.L.~.~.[.).A.M.L.%X/.@XqXf x F t kXxXdXrXrXkXwXwX5X/.P.~.H._.",
"] X.=.>.w.x.S.!.(.D.^.Q.~.~.> l i > _.).).^.~.L.A.~.^.~.(.~._.).c.a.<.q.<.7.8.9.i.g.x.j.A.c.* m k & D.(.(.Q.W.h.8.>.=.*.} ) / Z ",
"              . . o X # +     4.4.    + + % % + + X X + + + % o . o o             o . X +   + 9.7.X   + + O +               o   ",
"$.+.;.O...{ U A c l y 9 y x &.M.W.<.u 7 7 r 6 t y r 7 7 8 w 1 8 M H Y L Y ] H G m l 9 r 7 Z 6.N.D.9.G y y x Z [ @.#.$.+.<.7.+.+."
};
